<?xml version="1.0" encoding="UTF-8"?>
<svg version="1.1" viewBox="0 0 1600 1232" width="1280" height="1280" xmlns="http://www.w3.org/2000/svg">
<path transform="translate(0)" d="m0 0h1600v1232h-1600v-1232z" fill="#F9FCFE"/>
<path transform="translate(1106 428)" d="m0 0c0.872 0.284 1.74 0.567 2.64 0.86 7.42 2.54 14.7 5.78 20.6 11 0.853 0.733 0.853 0.733 1.72 1.48 1.21 1.33 1.21 1.33 1.21 3.33h2c1.28 1.37 1.28 1.37 2.72 3.3 0.534 0.706 1.07 1.41 1.62 2.14 0.568 0.764 1.14 1.53 1.72 2.31 0.583 0.773 1.17 1.55 1.77 2.34 2.61 3.46 5.2 6.94 7.78 10.4 9.38 12.6 16.1 20.5 31.3 25.2 3.11 1.31 3.11 1.31 5.16 2.9 1.87 4.74-0.224 9.39-2.06 13.9-1.19 2.63-2.45 5.22-3.73 7.81-0.681 1.39-0.681 1.39-1.38 2.8-0.895 1.82-1.79 3.64-2.69 5.46-0.966 1.99-1.87 4.01-2.75 6.04-8.27 18.7-27.6 29.3-45.4 37.4-1.05 0.485-2.09 0.969-3.17 1.47-7.65 3.25-15.4 4.8-23.6 6.19-5.04 0.835-5.04 0.835-9.86 2.44-3.48 1.32-6.91 1.2-10.6 1.15-0.762-0.00604-1.52-0.0121-2.31-0.0183-5.72-0.1-10.9-0.88-16.5-2.23-18.9-3.98-37.3-4.6-56.5-2.99-1.46 0.119-2.93 0.231-4.39 0.334-25 1.76-45 11.7-61.6 30.6-4.5 5.63-7.71 11.5-10.6 18.1-0.401 0.901-0.802 1.8-1.21 2.73-3.39 7.97-3.93 15.5-3.97 24.1-0.00829 0.961-0.0166 1.92-0.0251 2.91-0.0173 2.08-0.0325 4.16-0.0458 6.24-0.0212 3.31-0.0482 6.62-0.0767 9.94-0.0595 7.06-0.112 14.1-0.163 21.2-0.0597 8.13-0.123 16.3-0.192 24.4-0.0261 3.22-0.0472 6.45-0.068 9.67-0.0758 9.98-0.261 19.9-0.704 29.9-0.0393 0.893-0.0786 1.79-0.119 2.71-1.37 28.2-7.68 56.1-28.4 76.1-13.9 13.4-21 27.4-22.6 46.7-0.359 3.36-0.359 3.36-1.36 4.36-3.44-0.25-3.44-0.25-7-1-2.04-3.06-2.29-4.03-2.53-7.54-0.0703-0.893-0.141-1.79-0.213-2.71-0.13-1.85-0.257-3.71-0.383-5.56-0.791-9.96-3.16-17.9-8.75-26.2-0.893-1.39-1.78-2.77-2.67-4.16-0.423-0.659-0.847-1.32-1.28-2-6.4-10.1-7.32-17-4.86-28.7 0.829-3.71 1.69-7.42 2.55-11.1 2.76-12.4 3.06-23.7-0.117-36.1-0.205-0.888-0.41-1.78-0.621-2.69-2-8.12-5.14-13.3-12.3-17.7-8.16-4.45-16.8-7.86-25.6-11-7.04-2.63-13.1-6.44-19.3-10.6 2.51-5.61 5.97-10.3 9.62-15.2 0.939-1.27 0.939-1.27 1.9-2.56 4.53-6.06 9.26-11.7 14.5-17.2 15.2-16.3 31.2-37.6 31.2-60.9l-0.188-3.12c-3 0.695-3 0.695-6 2-0.736 2.03-0.736 2.03-1 4-7.33-3.81-9.17-8.98-12-16.5-1.18-3.04-2.42-6.05-3.66-9.06-14.7-35.7-14.7-35.7-7.38-53.8 13.3-31.5 33.3-55.6 59.8-77 0.651-0.528 1.3-1.06 1.97-1.6 0.623-0.499 1.25-0.998 1.89-1.51 0.835-0.672 0.835-0.672 1.69-1.36 4.31-3.08 7.37-3.73 12.7-3.22 15.8 4.26 30.4 15 39 29 0.75 3.88 0.75 3.88 0 7-2.67 3.85-6.51 5.88-11 7-2.31 0.187-4.62 0.329-6.94 0.438-9.26 0.557-13.5 2.69-19.9 9.38-9.75 11.3-19 23.9-20.1 39.2-0.103 1.2-0.206 2.39-0.312 3.62 0.163 9.32 3.74 18.8 10.3 25.4 8.15 7.27 16 10.2 26.9 9.75 0.695-0.0464 1.39-0.0928 2.11-0.141 4.05-0.122 6.29 0.262 9.21 2.97 2.55 2.78 2.55 2.78 5.68 2.23 0.701-0.268 1.4-0.536 2.12-0.812 0.792-8.59 0.792-8.59-2.5-16.2-0.825-0.908-1.65-1.82-2.5-2.75-3.28-0.0467-3.28-0.0467-7 1-1.61 1.62-1.61 1.62-3 3.56-2.62 3.35-2.62 3.35-6.31 4.19-8.61-1.75-14.7-6.57-19.7-13.8-4.37-7.59-3.86-16.2-1.88-24.5 3.61-11.7 10.9-23.8 21.8-30.1 1.03-0.474 2.06-0.949 3.12-1.44 0.722-0.433 1.44-0.866 2.19-1.31 2.29-0.87 3.54-0.499 5.81 0.312 0.33 2.31 0.66 4.62 1 7-0.453 0.316-0.907 0.633-1.37 0.959-15.1 10.6-15.1 10.6-22.6 27-0.341 2.81-0.501 5.61-0.625 8.44-0.0387 0.732-0.0773 1.46-0.117 2.22-0.0932 1.78-0.177 3.56-0.258 5.35h5c0.324-0.83 0.324-0.83 0.655-1.68 7.65-19.5 7.65-19.5 12.3-28.3 0.536-1.13 1.07-2.27 1.62-3.44 2.23-4.16 2.23-4.16 4.38-5.56 2.31-0.188 2.31-0.188 5 1 1.59 1.82 2.94 3.75 4.33 5.72 1.78 2.42 3.67 4.6 5.73 6.78 0.63 0.67 1.26 1.34 1.91 2.03 2.51 1.82 4 1.76 7.03 1.47 0.0632-0.629 0.126-1.26 0.191-1.91 0.184-1.28 0.184-1.28 0.371-2.59 0.104-0.835 0.209-1.67 0.316-2.53 2.85-7.54 10.2-13.1 16.1-18.5 1.41-1.31 2.82-2.62 4.23-3.93 0.665-0.617 1.33-1.23 2.01-1.87 3.36-3.15 6.6-6.41 9.81-9.7 5-5 5-5 6.68-6.58 4.28-4.09 7.37-8.3 10.3-13.4-5.59 2.66-10.6 5.62-15.7 9.19-1.4 0.979-2.8 1.96-4.21 2.94-0.69 0.485-1.38 0.969-2.09 1.47-1.85 1.29-3.72 2.57-5.59 3.84-11.4 7.65-11.4 7.65-21.5 16.8-1.89 1.81-1.89 1.81-4.64 2.5-5.9-1.25-9.98-5.79-13.2-10.7-0.562-2.75-0.562-2.75 0-6 4.4-5.9 10.2-8.97 16.7-12.1 14-7 26.6-15.9 38.7-25.9 36.4-28.7 77.8-49.9 124-34.7z" fill="#000002"/>
<path transform="translate(526 482)" d="m0 0c6.67 4.26 13.4 8.32 20.3 12.2 0.822 0.47 1.64 0.94 2.49 1.42 5.38 2.97 10.2 5.34 16.5 3.66 11.8-6.56 20.3-21.8 27.1-33.2 4.04-5.67 9.56-9.89 16.2-12.1 12.2-1.8 23.8 3.93 34 10 7.39 5.63 14.5 14.8 16.4 24 0.914 10.6-4.89 19.8-9.41 29-9.05 18.6-9.05 18.6-10 39 1.78 4.56 4.52 6.32 8.82 8.27 3.43 1.15 6.8 1.06 10.4 0.979 7.52 0.132 13.9 1.72 20.9 4.38 0.864 0.319 1.73 0.637 2.62 0.966 8.78 3.53 15.2 8.81 19.3 17.4 4.22 14.3-0.0117 30.2-4 44-0.349 1.25-0.699 2.5-1.06 3.78-9.04 29.4-24.1 59.3-47.9 79.5-3.52 3.07-6.75 6.42-10 9.75-5 5-5 5-6.95 6.78-17.9 16.8-26.3 39.7-31 63.2-3.88-1.75-3.88-1.75-5-4-0.176-1.8-0.298-3.6-0.395-5.4-0.069-1.12-0.138-2.24-0.209-3.4-0.135-2.31-0.263-4.63-0.383-6.95-0.452-7.1-1.46-13.8-2.96-20.7-2.18-10.2-3.13-20.4-3.89-30.8-0.381-5.19-0.8-10.4-1.22-15.6-0.08-1-0.16-2-0.242-3.03-0.647-7.94-1.58-15.8-2.7-23.7-0.756-5.64-1.21-11.3-1.53-16.9-0.0413-0.742-0.0826-1.48-0.125-2.25-0.199-3.67-0.378-7.34-0.53-11-0.621-13.6-4.05-24.5-13.8-34.3-3.32-2.05-6.13-2.72-10-3-0.825-0.0709-1.65-0.142-2.5-0.215-7.28-0.284-14.5 0.581-20.9 4.06-5.89 3.03-12.3 4.31-18.7 5.84-1.25 0.307-2.5 0.615-3.79 0.932-23 5.62-48.1 5.28-71.1-0.619l-2.16-0.535c-29.4-7.51-58.2-25.7-75.8-50.5-0.402-0.563-0.804-1.13-1.22-1.71-32.2-45.4-32.2-45.4-28.8-71.3 3.81-8.22 11.7-12.6 19.2-16.9 0.71-0.414 1.42-0.828 2.15-1.26 1.82-1.02 3.71-1.92 5.6-2.81 0.99 0.33 1.98 0.66 3 1 0.33 0.99 0.66 1.98 1 3-3.56 5.45-8.02 10.4-13.1 14.5-0.969 0.825-1.94 1.65-2.94 2.5v3c-0.99 0.495-0.99 0.495-2 1 0.33 0.33 0.66 0.66 1 1 0.831-0.976 1.66-1.95 2.52-2.96 1.1-1.29 2.2-2.57 3.29-3.86 0.547-0.643 1.09-1.29 1.66-1.95 0.532-0.622 1.06-1.24 1.61-1.88 0.487-0.571 0.974-1.14 1.48-1.73 1.44-1.63 1.44-1.63 3.07-3.22 1.48-1.35 1.48-1.35 2.18-3.28 1.39-2.5 3.21-3.95 5.46-5.68 1.9-1.54 1.9-1.54 4.12-3.84 8.54-8.54 18.2-14.7 28.6-20.6 1.18-0.667 1.18-0.667 2.38-1.35 41-21.9 88.7 5.33 123 27.3z" fill="#000002"/>
<path transform="translate(1447 636)" d="m0 0c3.12 0.928 5.9 2.17 8.82 3.61 1.03 0.501 2.07 1 3.13 1.52 2.78 1.69 4.27 2.77 5.74 5.67-0.0912 3.1-0.565 4.52-2.64 6.82-1.07 0.922-1.07 0.922-2.17 1.86-21.7 20.8-34.1 53.3-45.1 80.7-0.942 2.32-1.91 4.62-2.89 6.92-5.12 12-9.28 24.2-13.2 36.7-0.277 0.886-0.554 1.77-0.839 2.69-3.26 10.7-4.91 20.1-4.16 31.3 8.78 1.16 13.9-3.07 20.6-8.25 7.48-5.85 13.9-12 19.4-19.8 0.704-0.909 1.41-1.82 2.13-2.75 6.14-8.54 9.34-17.6 12.7-27.5 8.38-24.3 19.1-48 31.1-70.7 0.512-0.973 1.02-1.95 1.55-2.95 21.4-40.4 21.4-40.4 34.4-46.1 4.96 0.118 7.85 1.94 11.8 4.88 0.944 0.699 1.89 1.4 2.86 2.12 2.39 2.01 2.39 2.01 4.39 5.01-0.252 3.81-2.18 5.36-4.94 7.81-3.8 3.68-6.91 7.56-9.81 12-0.43 0.65-0.86 1.3-1.3 1.97-4.82 7.41-8.94 15.2-13 23-0.791 1.51-1.58 3.02-2.37 4.53-15.2 29-27.9 58.6-35.5 90.5-0.307 1.28-0.614 2.56-0.93 3.88-2.69 10.4-2.69 10.4-1.13 20.8 0.33 0.495 0.66 0.99 1 1.5 11.8-0.219 20.9-9.67 28.7-17.8 3.29-3.66 6.31-7.52 9.32-11.4 11.9-15.4 11.9-15.4 17.9-17.8 2.75 0.375 2.75 0.375 5 1 0.406 4.49 0.406 4.49-1.36 6.71-0.643 0.549-1.29 1.1-1.95 1.66-3.87 3.62-6.89 7.45-9.94 11.8-12.3 17.1-27.7 36.5-48.8 42.9-8.53 1.31-16-1.29-22.9-6.25-3.87-3.26-5.91-5.71-7.12-10.8-0.214-4.35-0.177-8.65 0-13-3.05-0.342-3.05-0.342-4.8 1.69-0.645 0.763-1.29 1.53-1.95 2.31-0.712 0.825-1.42 1.65-2.16 2.5-1.26 1.51-2.52 3.03-3.75 4.56-7.93 9.63-18.1 17.3-30.6 19.3-7.83 0.459-15.7-2.42-21.8-7.31-5.29-5.06-5.82-11.3-6-18.4-0.00337-1.9 0.0246-3.8 0.0586-5.71-3.93 1.51-5.49 3.76-7.81 7.19-9 12.7-20.2 20.7-35.5 24.4-7.47 0.696-14.6-3.62-20.7-7.55-6.07-5.82-7.03-11.1-7.56-19.2-0.0838-1.26-0.168-2.53-0.254-3.83-0.0606-0.964-0.121-1.93-0.184-2.92h-3c-0.259 0.566-0.518 1.13-0.785 1.71-6.67 12.5-19.6 25.7-33.2 30.3-10.5 0.811-17.1-0.313-25.2-7.19-7.72-7.31-11.7-14.5-12.2-25.3 0.586-24.9 16.6-50.2 33.9-67.2 12.4-11.5 29.6-18.3 46.5-18.3 6.26 0.421 12 1.36 16.8 5.69 3.5 2.16 7.14 2.11 11.1 1.31 0.969-0.866 1.94-1.73 2.94-2.62 3.06-2.38 3.06-2.38 5.48-2.37 4.65 0.865 8.79 2.05 12.6 4.99 1.55 3.09 1.25 5.58 1 9-1.43 3.19-1.43 3.19-3.44 6.56-11 19.6-22.6 45.8-22.8 68.5-0.0142 1.02-0.0284 2.04-0.043 3.1 0.232 2.86 0.635 4.48 2.23 6.84 3.2 1.36 5.2 1.3 8.44 0.0781 5.72-2.76 10.4-5.91 14.9-10.4 1.68-1.68 3.38-3.35 5.1-4.99 5.66-5.47 10.3-11 14.6-17.7 0.375-0.537 0.75-1.07 1.14-1.63 4.06-6.04 6.37-12.5 8.8-19.4 0.661-1.82 0.661-1.82 1.33-3.67 1.54-4.23 3.06-8.46 4.58-12.7 39.1-109 39.1-109 63.5-106z" fill="#000002"/>
<path transform="translate(351,694)" d="m0 0c2.18 2.32 2.89 3.96 4 7 2.29 0.588 2.29 0.588 5 0 1.43-1.68 2.56-3.46 3.76-5.31 1.79-2.44 3.31-3.06 6.24-3.69 5.58-0.527 10.1 0.431 15 3 2.06 1.75 2.06 1.75 3 4-0.392 5.87-2.28 10.4-4.75 15.6-2.51 5.45-4.88 10.9-6.94 16.5-1.33 3.57-2.69 6.71-4.81 9.88-5.65 8.61-7.96 18.1-9.88 28.1-0.27 1.36-0.27 1.36-0.545 2.74-1.16 6.57-0.98 12.5-0.0798 19.1 6.18 0.704 10.8 0.742 16.1-2.88 16.3-13.2 29.6-27.8 37.9-47.2 5.83-13.6 13.8-25.5 23.1-36.9 0.771-0.986 1.54-1.97 2.34-2.99 5.38-6.87 5.38-6.87 7.66-8.01 5.55-0.429 10.9-0.48 16 2 2.51 2.26 2.95 3.75 3.62 7.06-1.11 7.01-5.68 12.2-9.74 17.9-19.7 27.4-19.7 27.4-25.9 59 2.5 3.64 3.98 4.79 8.31 5.69 14-2.6 25.7-20.8 33.3-31.7 6.93-10.4 13.3-21 19.1-32 0.567-1.08 1.13-2.16 1.72-3.27 3.48-6.81 6.16-13.6 8.49-20.9 1.16-2.8 1.16-2.8 4.16-4.8 5.37-0.526 10.4 0.195 15 3 2.5 2.61 3.91 4.14 4.29 7.79-0.933 8.75-2.66 17.2-4.79 25.7-0.173 0.704-0.347 1.41-0.525 2.13-2.62 10.6-5.56 21.2-8.79 31.6-0.373 1.21-0.745 2.42-1.13 3.67-2.68 8.48-2.68 8.48-4.68 11.7-1.71 2.51-1.71 2.51-1.38 6.4 3.44 0 3.72-0.322 6.11-2.56 0.586-0.545 1.17-1.09 1.78-1.65 0.615-0.589 1.23-1.18 1.86-1.78 0.951-0.897 0.951-0.897 1.92-1.81 3.74-3.56 7.25-7.2 10.6-11.2 2.3-2.63 4.78-5.07 7.27-7.52 3.88-3.83 7.53-7.72 11-11.9 1.73-1.76 3.24-2.66 5.54-3.56 2.25 0.375 2.25 0.375 4 1 0.574 3.77-0.0167 5.03-2.16 8.27-0.955 1.19-1.92 2.37-2.9 3.54-0.507 0.625-1.01 1.25-1.54 1.89-3.08 3.77-6.22 7.49-9.47 11.1-1.58 1.79-3.13 3.6-4.67 5.42-8.94 10.6-18.3 20.4-29.1 29.2-8.79 7.29-13.7 14.8-18.3 25.3-9.16 20.8-20 42.3-41.2 52.8-7.69 2.83-17.4 2.63-25.2-0.258-1.54-0.744-3.07-1.54-4.56-2.38-0.802-0.436-1.6-0.871-2.43-1.32-6.24-3.74-9.9-7.89-12.3-14.8-1.3-6.13 0.855-10.8 3.82-16.1 7.61-11.1 24-17.9 36.2-22.7 3.54-1.44 6.9-3.17 10.3-4.94 3.27-1.56 6.66-2.65 10.1-3.69 6.27-3.99 8.99-12.8 11.8-19.4 0.576-1.36 0.576-1.36 1.16-2.75 2.53-6.08 4.89-12.2 7.02-18.4 0.26-0.743 0.519-1.49 0.787-2.25 1.21-3.68 1.74-6 0.588-9.69-2.99 2.79-5.1 5.56-7.19 9.06-10.3 16.5-23.9 30.9-42.8 36.9-6 0.901-10.1-0.728-15-4-7.28-5.39-11.5-10.3-14-19-0.413-1.2-0.825-2.39-1.25-3.62-0.248-0.784-0.495-1.57-0.75-2.38-2.8 0.351-3.85 0.834-5.79 2.93-0.909 1.24-0.909 1.24-1.84 2.5-7.35 9.54-15.6 18.7-27.4 22.6-10.6 1.12-19.3 0.791-28-6-5.45-5.45-6.37-11.4-7.12-18.8-0.0864-0.788-0.173-1.58-0.262-2.39-0.211-1.93-0.413-3.87-0.613-5.8-3.24 3.16-6.21 6.37-9 9.94-1.33 1.69-2.66 3.38-4 5.06-0.777 0.999-1.55 2-2.36 3.03-6.53 7.34-17.6 15.2-27.5 16.5-9.23-0.543-17.7-5.68-23.8-12.4-5.54-7.34-7.69-15.9-6.96-25.1 3.7-24.5 16.6-50 36.5-65.2 7.02-4.88 14.3-8.59 22.2-11.9 0.95-0.415 1.9-0.83 2.88-1.26 10.8-4.39 21.6-3.91 32.1 1.26z" fill="#000002"/>
<path transform="translate(1074,618)" d="m0 0c3.29 3.08 6.12 6.54 9 10 0.729 0.849 0.729 0.849 1.47 1.71 2.34 3.03 3.43 6.17 3.23 10-2.13 6.85-8.61 12.3-13.6 17.1-17.1 16.7-28.6 39.5-40.3 60.1-1.56 2.72-3.14 5.41-4.74 8.1-9.45 15.9-17.9 32.5-24 49.9-0.393 1.09-0.786 2.18-1.19 3.3-2.74 7.85-5.05 15.8-7.25 23.8-0.425 1.49-0.425 1.49-0.859 3.02-0.251 0.945-0.503 1.89-0.762 2.86-0.23 0.842-0.46 1.68-0.697 2.55-0.304 3.04 0.392 4.74 1.76 7.44 1.6 2.01 1.6 2.01 4 3 11.4 0.224 20.3-10.6 28-18 0.483-0.461 0.966-0.922 1.46-1.4 5.82-5.58 11.2-11.4 16.2-17.7 1.68-2.08 3.37-4.09 5.13-6.09 7.43-8.43 14-17.3 20.5-26.4 7.38-10.4 14.9-20.5 23.1-30.2 5.06-6.09 9.53-12.7 14.1-19.1 1.88-2.63 3.79-5.24 5.7-7.85 2.78-3.81 5.46-7.67 8.12-11.6 4.63-6.74 9.56-13.2 14.6-19.6 0.776-0.984 1.55-1.97 2.35-2.98 4.03-5.02 8.18-9.71 12.8-14.2 1.75-1.76 3.28-3.59 4.83-5.53 3.83-4.54 8.23-7.69 14.1-9 3.74 0.875 5.45 2.69 8.19 5.29 2.43 1.95 4.68 2.25 7.75 2.4 0.364-0.545 0.727-1.09 1.1-1.65 1.06-1.59 2.12-3.18 3.19-4.76 1.1-1.67 2.18-3.35 3.23-5.05 2.92-4.66 5.37-8.09 10.5-10.5 3.88-0.646 5.6-0.199 9.12 1.56 4.43 3.76 6.46 6.72 7.33 12.4 0.447 8.56-1.72 14-6.45 21-0.588 0.901-1.18 1.8-1.78 2.73-6.16 9.15-6.16 9.15-10.2 12.3-3.2 0.377-5.11 0.444-8-1 1.88-5.88 1.88-5.88 3-7 1.67-0.0406 3.33-0.0427 5 0-1.95-5.84-4.24-10.1-8-15-6.27 0.824-9.09 4.27-13 9-2.94 4.18-5.51 8.54-8 13-0.358 0.631-0.715 1.26-1.08 1.91-14.4 25.7-25.5 53.5-36.8 80.7-1.71 4.13-3.44 8.26-5.17 12.4-0.29 0.696-0.581 1.39-0.88 2.11-4.93 11.8-10.7 23.1-16.6 34.4-1.37 2.64-2.73 5.29-4.09 7.93-0.889 1.72-1.78 3.45-2.67 5.17-2.06 3.99-4.1 7.99-6.09 12-0.535 1.08-0.535 1.08-1.08 2.19-0.653 1.33-1.3 2.65-1.95 3.98-2.9 5.91-6.51 11.1-10.4 16.4-2.51 3.44-4.96 6.92-7.42 10.4-0.516 0.727-1.03 1.45-1.56 2.2-2.81 3.97-5.5 7.97-8.06 12.1-5.88 9.35-12.3 16.5-21.2 23.1-0.723 0.53-1.45 1.06-2.19 1.61-1.59 1.15-3.2 2.27-4.81 3.39-0.66-0.33-1.32-0.66-2-1 1.42-4.52 3.68-6.7 7-10 1.74-2.13 3.45-4.26 5.12-6.44 0.965-1.24 1.93-2.48 2.89-3.73 0.491-0.633 0.981-1.27 1.49-1.92 1.47-1.89 2.95-3.76 4.44-5.63 8.85-10.4 8.85-10.4 15.1-22.3h-2v-2c-1.65 0.33-3.3 0.66-5 1-0.33 0.99-0.66 1.98-1 3-1.63 1.54-1.63 1.54-3.67 3.18-4.2 3.57-7.35 7.44-10.6 11.9-4.68 6.31-9.54 12.4-14.8 18.2-5.72 6.21-5.72 6.21-7.88 14 0.202 0.607 0.405 1.21 0.613 1.84 0.312 3.94 0.312 3.94-0.988 5.74-5.82 5.21-11.1 5.56-18.7 5.2-2.7-0.456-5.24-0.952-7.88-1.62-0.695-0.177-1.39-0.355-2.11-0.538-10.1-2.77-18.8-8.28-24.5-17.2-4.17-7.58-5.55-14.6-3.37-23 1.48-4.37 3.31-6.8 6.88-9.69 3 2 3 2 3.81 4.79 0.208 1.12 0.415 2.24 0.629 3.39 2.06 9.48 4.84 13.9 13.1 19.3 0.807 0.499 1.61 0.998 2.45 1.51 0.99 0.639 1.98 1.28 3 1.94 5.73 2.03 10.4 2.05 16.1-0.121 21.3-10.6 31.9-30.1 42.9-50.2 1.32-2.4 2.65-4.79 4.01-7.17 5.28-9.27 10.3-18.7 15-28.2 0.741-1.47 1.48-2.94 2.22-4.42 1.54-3.07 3.08-6.14 4.62-9.21 1.54-3.08 3.09-6.15 4.64-9.22 10.3-20.5 20-41 28.4-62.4 0.42-1.05 0.839-2.09 1.27-3.17 0.377-0.975 0.755-1.95 1.14-2.95 0.332-0.849 0.664-1.7 1.01-2.57 0.634-2.53 0.438-3.88-0.421-6.31-1.52 2.27-3.04 4.54-4.56 6.81-0.418 0.623-0.837 1.25-1.27 1.89-2.48 3.71-4.9 7.44-7.28 11.2-4.57 7.2-9.25 14.3-14 21.4-1.03 1.56-2.06 3.12-3.08 4.68-6.96 10.6-14.4 20.6-22.5 30.3-2.64 3.22-5.09 6.58-7.53 9.95-4.25 5.76-8.7 11.1-13.6 16.3-1.89 2.01-3.68 4.07-5.46 6.18-13.4 15.3-28.1 30-49.4 32-2.12 0.0928-4.25 0.158-6.38 0.188-0.816 0.0245-1.63 0.049-2.47 0.0742-6.73-0.226-11.7-3.55-16.5-8.07-6.78-9.43-5.78-21.9-4.44-32.9 6.54-36.8 25.7-72.2 44.4-104 0.637-1.09 1.27-2.17 1.93-3.29 22.2-37.8 22.2-37.8 35.1-54.7 0.715-0.941 0.715-0.941 1.44-1.9 17.7-23.2 17.7-23.2 24.6-20.1z" fill="#000002"/>
<path transform="translate(172 586)" d="m0 0c7.8 2.97 14 13.7 17.6 21 1.28 5.09 0.532 8.61-1.31 13.4-1.44 2.19-2.82 3.77-4.69 5.56 0.0348-0.883 0.0696-1.77 0.105-2.68 0.18-7.99-0.512-14.8-3.11-22.3h-3c-0.848 6.57-1.13 12.9-1.06 19.6 0.00451 0.913 0.00902 1.83 0.0137 2.77 0.0116 2.22 0.028 4.45 0.0488 6.67 1.98 0.66 3.96 1.32 6 2-3.46 9.87-7.89 18.9-13 28-0.768 1.37-0.768 1.37-1.55 2.77-2.79 4.96-5.59 9.91-8.4 14.9-2.71 4.78-5.39 9.57-8.05 14.4 1.19 0.0142 2.38 0.0284 3.61 0.043 15.9 0.383 32.1 2.4 47.5 6.53 2.95 0.679 5.87 0.489 8.87 0.432 1.58-3 3.17-6 4.75-9 0.443-0.839 0.887-1.68 1.34-2.54 2.05-3.89 4.08-7.79 6-11.7 1.63-3.27 3.51-6.16 5.72-9.09 0.703-0.947 1.41-1.89 2.13-2.87 0.679-0.909 1.36-1.82 2.06-2.75 4.74-6.38 8.88-13 12.9-19.9 10.5-17.6 10.5-17.6 14.1-22.1h2c0.206-0.681 0.413-1.36 0.625-2.06 2.28-4.87 5.7-8.45 9.69-12 4.26-1.49 7.54-0.503 11.7 1.06 9.03 4.54 9.03 4.54 12 9-0.117 2.01-0.117 2.01-1 4-1.82 1.49-1.82 1.49-4.12 2.88-6.84 4.14-12.3 9.09-17 15.6-0.458 0.631-0.916 1.26-1.39 1.91-6.04 8.55-11 17.8-16 26.9-1.3 2.39-2.62 4.76-3.95 7.13-4.54 8.18-8.39 16.6-12 25.2-0.434 1.02-0.868 2.04-1.32 3.09-3.07 7.41-3.07 7.41-4.18 15.3 0.827 2.04 0.827 2.04 2.31 3.56 5.23 6.6 5.18 13.3 4.69 21.4-0.29 1.34-0.606 2.68-1 4-3.83-0.547-5.51-2.11-8-5-0.495-0.887-0.99-1.77-1.5-2.69-1.28-2.48-1.28-2.48-3.69-3.12-0.598-0.0619-1.2-0.124-1.81-0.188-2.79 5.05-4.31 10.1-5.81 15.6-3.06 11.1-3.06 11.1-4.7 16.2-3.19 10-5.78 20.1-8.05 30.4-0.288 1.23-0.576 2.46-0.873 3.73-1.58 7.47-1.59 12.1 1.44 19.1 0.544 3.03 0.756 5.93 1 9-10.6-1.43-20.4-9.76-27-18-5.1-8.72-3.09-18.3-0.938-27.7 0.223-0.993 0.447-1.99 0.677-3.01 3.83-16.5 9.03-32.5 15.4-48.2 2.23-5.66 3.31-9.98 2.84-16.1-1.1 0.0387-2.19 0.0773-3.32 0.117-5.31-0.00233-10.4-1-15.6-1.99-8.05-1.48-16-2.71-24.2-3.44-3.57-0.338-6.83-0.909-10.3-1.93-3.47-1.13-3.47-1.13-5.47 0.215-1.65 2.77-3.18 5.57-4.59 8.46-0.333 0.677-0.666 1.35-1.01 2.05-20.6 41.8-20.6 41.8-26.6 87.5-6.51-0.167-10.3-3.99-15-8-0.657-0.535-1.31-1.07-1.99-1.62-6.22-5.14-9.45-9.23-10.6-17.4-0.664-4.7-1.25-8.25-4.44-11.9v-2c-0.572-0.228-1.14-0.456-1.73-0.691-7.76-4.48-17.4-17.8-20.3-26.3-0.895-7.01 1.62-12.9 5-19 8.87-11.2 27-18.7 40.6-21 12.6-1.59 12.6-1.59 22.3-8.79 1.66-2.94 1.66-2.94 3.06-6.19 0.617-1.22 1.24-2.43 1.87-3.64 1.37-2.67 2.7-5.35 4-8.06 2.18-4.48 4.57-8.83 7-13.2 0.419-0.753 0.839-1.51 1.27-2.28 2.1-3.76 4.23-7.49 6.4-11.2 14.4-24.4 14.4-24.4 19.5-51.6-0.32-4.63-0.32-4.63 1.35-6.88 1.65-1.18 1.65-1.18 4.02-1.18z" fill="#000002"/>
<path transform="translate(725 814)" d="m0 0c0.878-0.0185 1.76-0.0371 2.66-0.0562 1.16-0.0306 1.16-0.0306 2.35-0.0618 2.49 0.238 4.05 0.884 6.16 2.21 1.91 3.81 1.25 9.08 1.33 13.3 0.84 4.63 1.89 5.93 5.67 8.7 2.92 1.31 5.91 2.17 9 3 1.44 0.398 1.44 0.398 2.91 0.804 6.32 1.74 6.32 1.74 12.6 3.42 4.18 1.16 7.63 2.18 11.1 4.77 2.09 4.82 1.86 9.62 1.87 14.8-0.0804 11.8-0.0804 11.8 4.98 22.2 9.74 7.84 21.2 9.06 33.5 8.01 3.65-0.495 7.26-1.13 10.9-1.81 0.879-0.165 1.76-0.33 2.66-0.501 4.12-0.829 7.95-1.8 11.8-3.39 3.6-1.29 4.24-1.41 7.62-0.301-0.378 3.4-1.82 5.33-4.29 7.64-10.3 8.21-19.8 9.97-32.7 9.36-0.767-0.0358-1.53-0.0715-2.32-0.108-21.9-1.2-42.7-7.19-62.7-16-22.3-9.65-51.9-18-75.8-9.97-6.51 2.61-12.8 5.77-19 9-2.03 1.04-4.08 2.04-6.13 3.03-1.34 0.663-1.34 0.663-2.7 1.34-7.73 3.57-14.3 4.46-22.8 4.35-1.13 0.0277-2.27 0.0554-3.43 0.084-9.33-0.0267-17.5-2.45-24.4-8.97-4.86-5.37-5.92-8.52-5.85-15.7 0.296-4.86 1.44-9.42 2.62-14.1 1.95-8.2 3.16-16 3.2-24.4 0.0729-5.11 0.0729-5.11 1.89-7.48 0.487-0.335 0.975-0.67 1.48-1.02 3 2 3 2 3.52 3.91 0.761 10.5 0.469 21 0.235 31.4-0.0548 2.58-0.0836 5.16-0.109 7.74-0.0238 0.777-0.0476 1.55-0.0721 2.36-0.0266 5.61 1.24 9.92 4.43 14.6 3.3 3.23 5.56 4.83 10.2 5.38 4.69-0.472 7.65-2.05 11.6-4.44 0.702-0.41 1.4-0.821 2.13-1.24 8.66-5.15 18.3-11.4 23-20.7 0.441-6.57 0.0385-12.7-1.53-19-0.684-2.87-1.01-5.05-0.469-7.96 5.19-4.79 11.4-5.53 18.2-6.42 12.4-1.66 19.2-5.45 27.1-15.2 2.27-1.89 3.74-1.84 6.67-1.92 1.47-0.0532 1.47-0.0532 2.98-0.107 1.03-0.0226 2.05-0.0451 3.11-0.0684 1-0.0342 2-0.0683 3.03-0.104 3.91-0.125 7.83-0.175 11.7-0.297z" fill="#000002"/>
<path transform="translate(1028,268)" d="m0 0c3.43 4.21 3.47 8.36 3.38 13.6-0.0174 1.25-0.0174 1.25-0.0352 2.53-0.843 33.2-16.1 62-30.9 91-0.715 1.41-1.43 2.82-2.13 4.23-6.38 12.7-13.9 24.3-23.4 34.9-0.499 0.573-0.998 1.15-1.51 1.74-3.8 4.35-7.66 8.64-11.5 12.9-1.54 1.73-3.01 3.48-4.45 5.29-5.67 6.54-12.8 11.8-19.6 17.1-1.16 0.917-1.16 0.917-2.34 1.85-10.7 8.37-10.7 8.37-17.3 8.15-0.77-0.0155-1.54-0.0309-2.33-0.0469-1.86-0.203-1.86-0.203-2.86-1.2 9.03e-4 -6.48 1.86-12.1 4.44-17.9 0.346-0.808 0.692-1.62 1.05-2.45 3.64-8.28 8.03-16.1 12.6-23.9 1.98-3.71 2.1-6.93 2.15-11.1 0.0387-1.68 0.0387-1.68 0.0781-3.4-0.358-3.52-1.3-5.37-3.33-8.23 3.71-4.77 8.91-6.13 14.4-8.19 31.4-12.4 54.4-37.5 68.6-67.8 3.09-7.52 5.32-14.8 5-23-4.04 1.52-5.55 3.88-7.88 7.44-0.79 1.18-1.58 2.35-2.38 3.53-0.435 0.643-0.869 1.29-1.32 1.95-24.5 35.7-52.4 57.2-95.2 66.7-10.9 1.89-10.9 1.89-15.8-1.17-1.96-1.73-3.77-3.49-5.51-5.44 0.33-1.32 0.66-2.64 1-4 3.49-0.871 5.57-0.89 9 0 6.96 0.655 13.3-0.71 20-2.5 1.51-0.4 1.51-0.4 3.04-0.809 14-3.89 26.3-10.1 38-18.7 0.848-0.614 1.7-1.23 2.57-1.86 11.7-8.88 20.6-20.6 29.4-32.1 0.877-1.14 1.75-2.28 2.63-3.43 0.425-0.553 0.849-1.11 1.29-1.67 7.97-10.4 16.1-20.4 25.1-29.9 0.727-0.776 1.45-1.55 2.2-2.35 1.8-1.65 1.8-1.65 3.8-1.65z" fill="#000002"/>
<path transform="translate(482,303)" d="m0 0c1.88 0.625 1.88 0.625 4 2 1.03 2.62 1.03 2.62 1.94 6 3.05 9.28 8.71 16.4 14.6 24.1 1.26 1.68 2.43 3.42 3.59 5.18 1.84 2.73 3.81 5.04 6.05 7.45 3.2 3.5 6.27 7.06 9.25 10.8 0.75 0.913 1.5 1.83 2.27 2.77 1.53 1.87 3.03 3.75 4.52 5.66 6.77 8.2 14.2 12.1 23.8 16.1 0.663 0.293 1.33 0.586 2.01 0.887 12.1 5.35 23.2 7.47 36.4 7.43 1.04 0.0161 2.08 0.0322 3.16 0.0488 15.8 0.00982 26-4.86 37.3-15.6 2.29-1.85 4.37-2.79 7.14-3.73 1 1 1 1 1.02 2.86-0.487 5.48-1.46 8.77-5.02 13.1-0.57 0.735-1.14 1.47-1.73 2.23-4.51 5.52-8.41 8.79-15.3 10.8-1.59 0.462-1.59 0.462-3.21 0.934-8.75 2.07-17.1 2.24-26.1 1.94-1.08-0.0338-2.17-0.0675-3.29-0.102-19-0.921-35.1-8.25-48.3-21.8-3.88-3.97-7.83-7.09-12.4-10.2-8.41-5.83-15.5-12.3-21.6-20.5-2.14-2.47-4.16-3.83-7.04-5.35 6.33 26.5 6.33 26.5 24 46 1.89 1.5 3.76 3.02 5.62 4.56 0.915 0.744 1.83 1.49 2.77 2.25 2.37 1.99 4.61 4.06 6.85 6.18 5.46 4.92 11.7 8.47 18.1 12.1 1.31 0.741 2.6 1.51 3.89 2.28 6.09 3.44 13 4.35 19.8 5.65 8.57 1.71 8.57 1.71 12 4 0.496 5.64-0.344 10.4-2.12 15.8-0.22 0.685-0.44 1.37-0.667 2.08-4.99 15-4.99 15-9.21 19.2-6.39 0.518-10.4-0.606-15.9-3.62-0.652-0.331-1.3-0.663-1.97-1-8.78-4.57-16.2-9.96-23.1-17.1-1.04-1.06-1.04-1.06-2.1-2.14-18.3-18.8-27.9-40-35.7-64.8-1.04-2.98-2.18-5.87-3.37-8.79-0.407-1-0.813-2.01-1.23-3.04-0.815-2-1.64-4-2.48-5.98-2.37-5.83-3.6-10.9-3.82-17.2-0.117-2.57-0.117-2.57-2.26-5.3-0.229-2.87-0.368-5.69-0.438-8.56-0.225-6.18-0.734-11.6-3.04-17.4-0.674-2.63-0.253-4.45 0.477-7.04l1-1z" fill="#000002"/>
<path transform="translate(867 326)" d="m0 0c6.32 6.49 6.14 15.8 6.09 24.4-0.0251 1.52-0.0251 1.52-0.0508 3.07-0.00902 1.05-0.018 2.1-0.0273 3.19-0.0233 2.56-0.056 5.12-0.0977 7.69-3.74-0.657-5.67-1.15-8.31-3.94-0.593-0.625-1.19-1.25-1.8-1.89-2.07-2.37-4.01-4.82-5.95-7.29-5.01-6.34-9.84-11.1-17.9-12.9-9.07-0.519-17.9 3.44-26.3 6.35-38.9 13.3-76.7 18.3-116 3.3-5.91-2.22-11.9-4.14-17.9-5.96-1.09-0.369-2.18-0.738-3.31-1.12-6.12-1.8-6.12-1.8-12.1-0.293-2.57 1.77-4.84 3.6-7.12 5.72-0.666 0.617-1.33 1.23-2.02 1.87-0.551 0.517-1.1 1.03-1.67 1.57-2.62 2.31-3.31 2.56-7 3.12-3.36-0.571-4.88-1.23-7.31-3.56 0.638-5.57 3.19-7.61 7.37-11.1 15.7-11.6 37.3-7.05 55.6-4.94 2.18 0.344 4.36 0.692 6.54 1.04 8.85 1.29 17.7 1.4 26.6 1.39 0.876 7.35e-4 1.75 0.00147 2.65 0.00223 15.9-0.0348 30.8-1.68 46.2-5.44 1.13-0.273 2.25-0.546 3.41-0.827 6.79-1.67 13.5-3.46 20.3-5.29 5.5-1.48 11-2.87 16.6-4.26 0.982-0.251 1.96-0.501 2.98-0.76 15.7-3.96 27.6-3.78 40.9 6.8z" fill="#000002"/>
<path transform="translate(655,905)" d="m0 0c3.36 2.24 3.5 2.84 4.69 6.5 4.38 11.5 13.9 20.3 24.7 25.9 3.3 1.54 3.3 1.54 5.6 2.04 2.02 0.527 2.02 0.527 3.94 1.55 11.8 5.54 30.7 2.05 43.6 1.23 2.13-0.132 4.26-0.251 6.39-0.369 1.37-0.0838 2.75-0.168 4.12-0.254 1.22-0.0733 2.44-0.147 3.69-0.222 3.12-0.392 5.41-1.16 8.27-2.41 7.91-1.14 16-1.11 24-1.19 1.2-0.0196 1.2-0.0196 2.43-0.0396 5.29-0.00778 10.3 0.0534 14.3 3.9 5.53 8.41 9.61 19.1 8.24 29.3-3.75 2.5-5.54 2.37-10 2-3.42-1.28-3.42-1.28-6.75-2.94-7-3.44-11.7-4.26-19.4-4.25-1.5-9.67e-4 -1.5-9.67e-4 -3.02-0.00195-5.64 0.0399-11 0.355-16.6 1.19-22 3.09-54.1 3.78-73.1-9.66-4.14-3.21-7.32-6.8-10.5-11-0.549-0.725-1.1-1.45-1.67-2.2-4.14-5.65-7.56-11.5-10.7-17.8-0.418-0.828-0.836-1.66-1.27-2.51-2.21-4.61-3.74-8.68-3.98-13.9 1.44-2.94 1.44-2.94 3-5z" fill="#000002"/>
<path transform="translate(1308 721)" d="m0 0c2.43 0.898 4.34 1.76 6.39 3.34 1.25 3.44 1.25 3.44 1 7-1.19 2.5-1.19 2.5-3 5-3.13 4.54-3.13 4.54-3.81 9.88 0.629 2.08 0.629 2.08 1.81 3.12 0.165 15-12.2 28.4-22 38.8-1.91 2.05-3.7 4.16-5.48 6.32-0.846 0.949-1.69 1.9-2.56 2.88h-2c-0.33 0.99-0.66 1.98-1 3-1.69 1.57-3.45 3.06-5.25 4.5-0.954 0.773-1.91 1.55-2.89 2.34-6.6 4.98-6.6 4.98-11.4 5.66-3.5-0.5-3.5-0.5-6.31-2.56-4.45-5.98-4.51-11.5-3.71-18.6 1.95-12.2 6.69-22.6 12.5-33.3 0.603-1.11 1.21-2.22 1.83-3.36 3.57-6.33 7.54-12 12.2-17.6 0.469-0.615 0.938-1.23 1.42-1.86 4.07-5.16 9.08-8.61 14.6-12.1 0.829-0.553 1.66-1.11 2.51-1.68 4.83-2.57 9.92-1.97 15.1-0.668z" fill="#FAFDFF"/>
<path transform="translate(346,700)" d="m0 0c3.31 2.12 3.31 2.12 5 5 0.248 4.01-0.325 7.6-2.08 11.2-1.09 3.28-0.935 5.79-0.74 9.2 0.557 10.1 0.557 10.1-1.49 14.1-1.76 1.87-1.76 1.87-3.71 3.6-2.31 2.13-3.64 4.32-5.23 7.02-9.16 14.8-24 33-40.8 38.8-3.29 0.493-4.71 0.148-7.69-1.38-3.48-3.96-4.15-7.4-4.31-12.6 2.08-23.9 14.5-50.4 32-67 10-8.11 16.3-12.9 29-8z" fill="#FAFDFF"/>
<path transform="translate(810 742)" d="m0 0c3.45 0.908 4.49 2.67 6.38 5.62 2.23 7.26 2.65 18.6-0.562 25.7-5.25 8.18-15.4 14.3-24.4 17.3-1.62 0.0935-3.25 0.13-4.88 0.125-0.889-0.00258-1.78-0.00516-2.7-0.00781-2.43-0.117-2.43-0.117-5.18-0.867-2.83-0.315-4.53 0.433-6.82 2.09-3.04 3.53-4.13 8.25-5.43 12.7-2.87-0.501-4.85-0.912-7.38-2.44-2.64-4.17-1.64-7.9-0.625-12.6 4.26-17.3 24.2-28.3 37.9-38.2 2.9-2.1 5.71-4.24 8.42-6.57 2.73-2.22 2.73-2.22 5.35-2.84z" fill="#000002"/>
<path transform="translate(489,508)" d="m0 0c5.42 0.596 9.84 2.45 14.8 4.69 0.803 0.364 1.61 0.729 2.43 1.1 15.4 7.07 27.3 17.2 38.9 29.4 2.44 2.53 4.54 4.67 7.91 5.83h4c1.23-1.45 2.45-2.91 3.61-4.42 4.15-4.71 12-7.86 18.1-9.16 3.76-0.172 6.09 0.49 9.55 2.02 5.1 4.75 8.5 11 8.88 18-0.00258 0.846-0.00516 1.69-0.00781 2.56 0.00387 1.27 0.00387 1.27 0.00781 2.56-0.124 2.28-0.494 4.25-1.13 6.44-3.45-0.192-4.75-0.746-7.19-3.25-2.57-4.21-2.78-9.11-3.32-13.9-0.235-2.95-0.235-2.95-2.49-4.83-6.73 2.14-11.8 4.2-17 9h-2c-0.29 0.59-0.58 1.18-0.879 1.79-0.96 1.89-2 3.74-3.06 5.59-2.95 5.82-3.88 12.3-5.06 18.6-2.25-0.16-2.25-0.16-5-1-2.01-2.34-2.01-2.34-3.97-5.44-0.357-0.555-0.715-1.11-1.08-1.68-0.765-1.19-1.52-2.38-2.28-3.58-1.97-3.12-3.98-6.2-6-9.29-0.399-0.61-0.797-1.22-1.21-1.85-3.3-5.01-6.83-9.78-10.6-14.4-0.491-0.599-0.982-1.2-1.49-1.81-5.15-6.13-10.6-11.7-17.1-16.4-1.02-0.755-2.05-1.51-3.1-2.29-1.02-0.75-2.04-1.5-3.09-2.27-1.91-1.42-3.8-2.86-5.69-4.31-0.808-0.615-1.62-1.23-2.45-1.86-2.01-1.97-2.51-3.08-2.86-5.82z" fill="#FAFDFF"/>
<path transform="translate(784 733)" d="m0 0c1.56 1.38 1.56 1.38 2.75 4.12-0.188 3.25-0.188 3.25-2.69 6.06-18.7 14.2-44 27.3-68.2 24.6-16.5-2.79-32.3-10.8-47.5-17.6-8.15-3.61-16.3-6.89-24.8-9.83v-2c12.4-0.957 24.4 5.67 35.6 10.3 17.8 7.25 33.9 12.5 52.7 4.94 7.33-3.35 14.3-7.43 21.3-11.4 20.6-11.8 20.6-11.8 30.8-9.16z" fill="#000002"/>
<path transform="translate(109,711)" d="m0 0c0.685 6.06-1.7 10.1-4.38 15.3-5.93 11.9-10.8 24.3-15.6 36.7-5.95-2.28-7.93-4.55-10.9-10.2-1.85-3.5-3.76-6.88-5.94-10.2-1.81-2.88-3.19-5.13-3.19-8.62 2.83-7.15 6.98-11.5 13.8-15 0.647-0.34 1.29-0.679 1.96-1.03 19-9.61 19-9.61 24.3-6.97z" fill="#FAFDFF"/>
<path transform="translate(634,754)" d="m0 0h3c0.231 0.534 0.461 1.07 0.699 1.62 1.08 2.47 2.19 4.93 3.3 7.38 0.374 0.862 0.748 1.72 1.13 2.61 4.67 10.2 11.2 13.8 21.1 18.7 3.9 2.39 3.9 2.39 4.79 5.71 0.167 2.85 0.234 5.59 0.188 8.44-6.45e-4 0.751-0.00129 1.5-0.00195 2.28-0.0308 3.89-0.242 7.49-1.19 11.3-2.81-0.875-2.81-0.875-6-3-1.42-3.24-2.18-6.56-3-10-0.33-0.66-0.66-1.32-1-2-2.72-0.319-5.41-0.38-8.14-0.461-3.68-0.693-5.22-1.9-7.86-4.54-1.98-3.09-1.98-3.09-3.75-6.5-0.889-1.69-0.889-1.69-1.8-3.41-1.92-4.09-2.58-7.32-2.59-11.8-0.00129-0.885-0.00258-1.77-0.00391-2.68 0.00387-0.916 0.00773-1.83 0.0117-2.78-0.00387-0.927-0.00773-1.85-0.0117-2.81 0.00129-0.881 0.00258-1.76 0.00391-2.67 0.00113-0.807 0.00226-1.61 0.00342-2.45 0.129-1.89 0.129-1.89 1.13-2.89z" fill="#000002"/>
<path transform="translate(448,836)" d="m0 0c3 1 3 1 5 4 0.357 8.56-6.05 14.6-11.4 20.7-4.25 4.32-7.3 6.85-13.5 7.04-4-0.21-6.1-1.13-9.12-3.75 0.421-4.91 2.4-6.78 6-10 2.26-1.4 4.47-2.69 6.81-3.94 9.58-4.52 9.58-4.52 15.9-12.2 0.0993-0.603 0.199-1.21 0.301-1.83z" fill="#FAFDFF"/>
<path transform="translate(269,616)" d="m0 0c0.66 0.33 1.32 0.66 2 1 0.616 15.2-8.15 27.4-17 39-1.14 1.51-1.14 1.51-2.31 3.04-3.76 4.6-3.76 4.6-5.69 5.96-2.73-0.285-2.73-0.285-5-1 0.586-3.67 1.59-6.48 3.37-9.74 0.487-0.895 0.974-1.79 1.48-2.71 0.525-0.944 1.05-1.89 1.59-2.86 0.537-0.973 1.07-1.95 1.63-2.95 3.34-6.01 6.76-12 10.4-17.8 0.388-0.635 0.776-1.27 1.18-1.93 2.44-3.87 5.06-6.91 8.39-10z" fill="#FAFDFF"/>
<path transform="translate(823,576)" d="m0 0c3.76 0.262 5.66 0.726 8.62 3.12 6.16 7.46 11.2 17 10.4 26.9-4.52-0.516-6.76-1.82-10-5-2.05-3.38-3.71-6.91-5.38-10.5-0.463-0.95-0.926-1.9-1.4-2.88-3.32-7.04-3.32-7.04-2.84-9.92 0.204-0.56 0.409-1.12 0.62-1.7z" fill="#FAFDFF"/>
<path transform="translate(580 556)" d="m0 0c1.75 0.75 1.75 0.75 2.75 1.75 0.0727 2.35 0.0837 4.71 0.0625 7.06-0.00902 1.29-0.018 2.58-0.0273 3.91-0.0116 0.999-0.0232 2-0.0352 3.03-0.66 0.33-1.32 0.66-2 1-0.656 2.53-0.656 2.53-1 5-3.53 0.504-4.84 0.102-7.88-1.88-2.7-3.98-2.35-6.1-1.71-10.7 0.924-3.76 1.86-5.84 4.96-8.21 2.62-1.19 2.62-1.19 4.88-0.938z" fill="#FAFDFF"/>
<path transform="translate(564,592)" d="m0 0c4.75 0.875 4.75 0.875 7 2 3.09-0.00877 6.16-0.132 9.25-0.258 1.36 0.128 1.36 0.128 2.75 0.258 2 3 2 3 1.88 5.5-1.11 3.17-1.88 3.97-4.88 5.5-2.73 0.845-5.15 1.28-8 1-3.61-2.73-6.02-5.94-8-10v-4z" fill="#FAFDFF"/>
<path transform="translate(880,697)" d="m0 0c7.87 3.63 13.4 9.1 19.5 15.2 0.829 0.813 1.66 1.63 2.51 2.46 5.07 5.07 9.29 10.2 13 16.3l-1 2c-2.67-2.45-5.34-4.91-8-7.38-0.763-0.699-1.53-1.4-2.31-2.12-0.722-0.67-1.44-1.34-2.19-2.03-0.67-0.618-1.34-1.24-2.03-1.87-1.47-1.6-1.47-1.6-1.47-3.6h-2v-2c-0.566-0.242-1.13-0.485-1.71-0.734-6.28-3.48-11.7-9.57-14.3-16.3z" fill="#FAFDFF"/>
<path transform="translate(362,485)" d="m0 0c0.33 0.99 0.66 1.98 1 3-0.601 0.567-0.601 0.567-1.21 1.14-4.71 4.56-8.8 9.46-12.9 14.6-1.92 2.26-1.92 2.26-3.92 3.26 1.08-5.04 2.73-8.05 6.75-11.3 3.88-3.27 7.04-6.76 10.2-10.7z" fill="#FAFDFF"/>
<path transform="translate(352,740)" d="m0 0h4c2.66 3.33 3.36 5.78 3 10-2.67-0.368-3.82-0.82-5.75-2.75-1.46-2.63-1.5-4.29-1.25-7.25z" fill="#FAFDFF"/>
<path transform="translate(1470,730)" d="m0 0c1.5 1.06 1.5 1.06 3 3 0.188 3.69 0.188 3.69 0 7-1.32 0.33-2.64 0.66-4 1-2-3-2-3-1.75-6.06 0.75-2.94 0.75-2.94 2.75-4.94z" fill="#FAFDFF"/>
<path transform="translate(978,792)" d="m0 0c3.62 2.64 6.03 4.95 8 9v3c-2.25-0.438-2.25-0.438-5-2-1.65-2.88-2.85-5.89-4-9l1-1z" fill="#FAFDFF"/>
</svg>
