<?xml version="1.0" encoding="UTF-8"?>
<svg version="1.1" viewBox="0 0 1600 1600" width="1280" height="1280" xmlns="http://www.w3.org/2000/svg">
<path transform="translate(0)" d="m0 0h1600v1600h-1600v-1600z" fill="#FDFDFD"/>
<path transform="translate(210 1100)" d="m0 0c2.08-0.00209 4.17-0.00505 6.25-0.00881 5.72-0.00778 11.4-0.00313 17.2 0.00356 6.23 0.00508 12.5-0.00145 18.7-0.00649 10.9-0.00722 21.8-0.00707 32.7-0.00191 11.7 0.00551 23.4 0.00666 35.1 0.00253 0.74-2.58e-4 1.48-5.17e-4 2.24-7.83e-4 3.02-0.00107 6.03-0.00216 9.05-0.0033 28.1-0.0106 56.1-0.0113 84.2-0.00571 0.831 1.66e-4 1.66 3.31e-4 2.52 5.02e-4 1.25 2.49e-4 1.25 2.49e-4 2.52 5.03e-4 25.4 0.00505 50.7 0.00635 76.1 0.00395 1.7-1.55e-4 3.4-3.09e-4 5.1-4.63e-4 6.83-6.21e-4 13.7-0.00126 20.5-0.00192 19.1-0.00183 38.2-0.00298 57.3-0.00357 1.3-4.09e-5 1.3-4.09e-5 2.63-8.27e-5 27.7-8.19e-4 55.4 0.00144 83.1 0.00578 0.898 1.4e-4 1.8 2.81e-4 2.72 4.26e-4 14.6 0.00229 29.2 0.00473 43.8 0.00718 57.8 0.00971 116 0.00926 174-4.61e-4 14.6-0.00244 29.2-0.00486 43.7-0.00714 0.898-1.41e-4 1.8-2.82e-4 2.72-4.27e-4 27.7-0.00431 55.3-0.00614 83-0.00527 0.869 2.72e-5 1.74 5.43e-5 2.63 8.23e-5 19.1 6.25e-4 38.1 0.00189 57.2 0.00374 6.82 6.58e-4 13.6 0.00128 20.5 0.0019 1.7 1.55e-4 3.4 3.12e-4 5.09 4.72e-4 25.4 0.00239 50.7 3.57e-4 76.1-0.0047 0.831-1.66e-4 1.66-3.31e-4 2.52-5.02e-4 0.829-1.65e-4 1.66-3.31e-4 2.51-5.01e-4 28-0.00552 56-0.00348 84 0.00706 3.01 0.0011 6.02 0.00218 9.02 0.00323 1.11 3.91e-4 1.11 3.91e-4 2.24 7.89e-4 11.7 0.00394 23.3 0.0012 35-0.00433 11.5-0.0053 23-0.00325 34.5 0.00603 6.14 0.00476 12.3 0.00638 18.4-8.12e-4 5.59-0.00649 11.2-0.00368 16.8 0.00636 2 2e-3 4.01 7.08e-4 6.01-0.00441 27.4-0.0651 52.7 2.72 74.2 21.3 0.65 0.507 1.3 1.01 1.97 1.54 6.46 5.22 11.2 11.8 16 18.5 0.946 1.3 0.946 1.3 1.91 2.62 3.84 5.61 6.62 11.5 9.28 17.8 0.482 1.13 0.482 1.13 0.973 2.29 0.998 2.43 1.93 4.88 2.84 7.34 0.367 0.972 0.734 1.94 1.11 2.95 2.76 7.98 3.49 15.3 3.35 23.7-0.0292 2.02-0.0205 4.04-0.00757 6.06-0.0489 7.64-0.774 14.1-3.46 21.3-0.388 1.19-0.776 2.39-1.18 3.62-7.06 20.2-18.1 37.8-35.8 50.4-0.975 0.733-0.975 0.733-1.97 1.48-20.8 14.9-45.3 18.3-70.3 18.2-2.13 0.0083-4.26 0.0188-6.39 0.0312-5.79 0.0275-11.6 0.0246-17.4 0.0162-6.31-0.00368-12.6 0.0215-18.9 0.0428-11 0.0332-22 0.0481-33 0.05-11.8 0.00215-23.5 0.0148-35.3 0.0402-0.744 0.0016-1.49 0.0032-2.25 0.00484-3.03 0.00653-6.06 0.0131-9.08 0.0198-32.9 0.0722-65.8 0.103-98.6 0.122-0.82 4.73e-4 -1.64 9.45e-4 -2.49 0.00143-1.66 9.53e-4 -3.32 0.0019-4.97 0.00284-17.1 0.00982-34.3 0.027-51.4 0.0456-82.9 0.0898-166 0.11-251 0.095-24.9-0.00434-49.8-0.00396-74.7 4.53e-4 -83.7 0.0147-167 0.00563-284-0.127-2.64-0.00328-5.29-0.00653-7.93-0.00978-44.7-0.0551-89.4-0.127-134-0.24-2.56-0.00647-5.13-0.0129-7.69-0.0194-1.7-0.00428-3.4-0.00858-5.1-0.0129-12.5-0.0316-25.1-0.0554-37.6-0.0748-14.1-0.0218-28.1-0.0541-42.2-0.101-7.84-0.0256-15.7-0.0432-23.5-0.0492-5.86-0.00543-11.7-0.0265-17.6-0.0535-2.36-0.00853-4.72-0.0121-7.08-0.0101-15.7 0.00954-30.6-0.875-45.6-5.93-0.73-0.244-1.46-0.489-2.21-0.74-15.5-5.55-30.5-15-41-27.8-0.638-0.717-1.28-1.43-1.93-2.17-9.79-11.4-15-25.4-19.7-39.5-0.325-0.944-0.325-0.944-0.656-1.91-7.13-21.2-0.692-41.9 7.54-61.7 0.616-1.49 1.2-3 1.77-4.51 1.11-2.61 2.47-4.9 3.98-7.3 0.544-0.897 1.09-1.79 1.65-2.72 3.08-4.96 5.94-9.39 10.4-13.3 0.812-0.757 1.62-1.51 2.46-2.29 7.26-6.71 7.26-6.71 9.54-6.71 0.224-0.588 0.449-1.18 0.68-1.78 2.66-4.47 7.92-6.65 12.3-9.22 0.652-0.384 1.3-0.768 1.98-1.16 17.5-9.47 36.3-10.1 55.7-10.1z" fill="#000100"/>
<path transform="translate(228 299)" d="m0 0c2.04-0.00105 4.07-0.00253 6.11-0.0044 5.55-0.00386 11.1-0.00158 16.6 0.00178 6.05 0.00255 12.1-7.29e-4 18.2-0.00324 10.6-0.0036 21.2-0.00354 31.8-9.53e-4 11.4 0.00276 22.7 0.00333 34.1 0.00126 1.08-1.94e-4 1.08-1.94e-4 2.18-3.91e-4 2.93-5.33e-4 5.86-0.00108 8.79-0.00165 27.3-0.00528 54.5-0.00565 81.8-0.00285 0.806 8.28e-5 1.61 1.66e-4 2.44 2.51e-4 0.808 8.29e-5 1.62 1.66e-4 2.45 2.51e-4 24.6 0.00253 49.3 0.00317 73.9 0.00198 1.65-7.75e-5 3.3-1.55e-4 4.95-2.31e-4 6.63-3.1e-4 13.3-6.29e-4 19.9-9.6e-4 18.5-9.17e-4 37.1-0.00149 55.6-0.00179 0.844-1.36e-5 1.69-2.73e-5 2.56-4.14e-5 26.9-4.09e-4 53.8 7.17e-4 80.7 0.00289 0.872 7.02e-5 1.74 1.4e-4 2.64 2.13e-4 14.2 0.00114 28.3 0.00236 42.5 0.00359 56.2 0.00486 112 0.00463 168-2.31e-4 14.2-0.00122 28.3-0.00243 42.5-0.00357 0.872-7.04e-5 1.74-1.41e-4 2.64-2.13e-4 26.9-0.00216 53.7-0.00307 80.6-0.00264 1.27 2.04e-5 1.27 2.04e-5 2.56 4.12e-5 18.5 3.13e-4 37 9.46e-4 55.6 0.00187 6.63 3.29e-4 13.3 6.42e-4 19.9 9.51e-4 1.65 7.74e-5 3.3 1.56e-4 4.95 2.36e-4 24.6 0.00119 49.2 1.79e-4 73.9-0.00235 1.21-1.24e-4 1.21-1.24e-4 2.44-2.51e-4 0.805-8.27e-5 1.61-1.65e-4 2.44-2.51e-4 27.2-0.00276 54.3-0.00174 81.5 0.00353 2.92 5.52e-4 5.84 0.00109 8.76 0.00161 0.717 1.3e-4 1.43 2.6e-4 2.17 3.95e-4 11.3 0.00197 22.7 6.03e-4 34-0.00216 11.2-0.00265 22.3-0.00162 33.5 0.00301 5.96 0.00238 11.9 0.0032 17.9-4.06e-4 5.43-0.00325 10.9-0.00183 16.3 0.00318 1.94 1e-3 3.89 3.6e-4 5.83-0.00221 9.66-0.0118 19.3 0.112 28.9 0.578 1.23 0.0588 1.23 0.0588 2.49 0.119 6.06 0.325 11.9 1.09 17.8 2.56 1.36 0.326 1.36 0.326 2.75 0.659 25.1 6.33 44 19.5 58.1 41.2 0.938 1.4 0.938 1.4 1.89 2.82 10.2 16.1 15.5 34.1 15.4 53.1l0.0488 3.97c0.00382 7.63-0.685 14-3.36 21.2-0.547 1.74-0.547 1.74-1.11 3.51-5.44 16-13.6 32.1-26.9 42.9-2.04 1.62-2.04 1.62-3.98 3.52-16.7 16-36.3 21.3-58.9 21.7-1.55 0.0376-3.11 0.0755-4.66 0.114-16.1 0.376-32.2 0.448-48.3 0.475-4.34 0.00823-8.69 0.0219-13 0.0347-8.54 0.0244-17.1 0.0439-25.6 0.0617-7.07 0.0149-14.1 0.0318-21.2 0.0501-1.54 0.00398-1.54 0.00398-3.11 0.00804-2.09 0.00542-4.18 0.0108-6.27 0.0163-24.5 0.0633-49.1 0.117-73.6 0.169-11.7 0.0249-23.4 0.0513-35.2 0.0777-109 0.246-218 0.446-572 0.382-1.08-0.0013-2.17-0.0026-3.28-0.00394-66.1-0.0795-132-0.187-198-0.323-16.1-0.0331-32.2-0.0625-48.3-0.0891-20.6-0.034-41.2-0.0747-61.8-0.127-9.97-0.0251-19.9-0.0473-29.9-0.0608-8.31-0.0113-16.6-0.0292-24.9-0.0558-4.18-0.0132-8.37-0.0235-12.6-0.025-46.5-0.0232-46.5-0.0232-60.5-6.44-1.38-0.601-1.38-0.601-2.79-1.21-11.9-5.33-21.3-12.6-30.7-21.7-0.929-0.883-1.86-1.77-2.82-2.68-2.18-2.32-2.18-2.32-2.18-4.32h-2c-1.35-1.9-2.61-3.88-3.81-5.88-0.666-1.09-1.33-2.18-2.02-3.3-4.86-8.41-8.43-16.9-11.4-26.1-0.351-1.06-0.701-2.12-1.06-3.21-7.98-24.3-1.27-47.9 9.31-70.5 0.971-1.68 1.97-3.35 3-5 0.544-0.897 1.09-1.79 1.65-2.72 3.08-4.96 5.97-9.36 10.4-13.3 0.743-0.763 1.49-1.53 2.25-2.31 0.908-0.887 1.82-1.77 2.75-2.69 0.602-0.598 1.2-1.2 1.82-1.81 16-15.2 39.5-24.1 61.4-24.8 0.957-0.0376 1.91-0.0752 2.9-0.114 9.99-0.363 20-0.408 30-0.395z" fill="#000100"/>
<path transform="translate(210 700)" d="m0 0c2.08-0.0027 4.17-0.00627 6.25-0.0106 5.72-0.00943 11.4-0.00647 17.2-0.00144 6.23 0.00327 12.5-0.00502 18.7-0.0118 10.9-0.0103 21.8-0.0132 32.7-0.0111 11.7 0.00225 23.4 1.73e-4 35.1-0.00714 0.74-4.59e-4 1.48-9.19e-4 2.24-0.00139 3.02-0.00188 6.03-0.00379 9.05-0.00574 31.4-0.0203 62.9-0.0264 94.3-0.0276 3.38-1.29e-4 6.76-2.65e-4 10.1-4.07e-4 0.839-3.4e-5 1.68-6.8e-5 2.54-1.03e-4 18.6-8.17e-4 37.2-0.0052 55.8-0.0102 7.67-0.00206 15.3-0.00404 23-0.00603 0.847-2.21e-4 1.69-4.42e-4 2.57-6.7e-4 48.5-0.0126 97.1-0.0209 146-0.02 1.82 3.16e-5 3.63 6.3e-5 5.45 9.44e-5 8.2 1.47e-4 16.4 3.23e-4 24.6 5.08e-4 3.66 8.22e-5 7.31 1.63e-4 11 2.43e-4 1.83 4.08e-5 3.66 8.28e-5 5.49 1.26e-4 57.9 0.00136 116-0.0133 174-0.0411 14.6-7e-3 29.1-0.0139 43.7-0.0205 0.897-4.06e-4 1.79-8.11e-4 2.72-0.00123 27.7-0.0124 55.3-0.02 83-0.0225 0.869-7.99e-5 1.74-1.6e-4 2.63-2.42e-4 19.1-0.00171 38.2-0.00223 57.2-0.00166 6.83 1.93e-4 13.7 2.97e-4 20.5 3.57e-4 1.7 1.58e-5 3.4 3.62e-5 5.1 6.12e-5 27 3.52e-4 54.1-0.011 81.1-0.0283 27.2-0.0173 54.5-0.0217 81.7-0.00848 3.77 0.00182 7.54 0.00351 11.3 0.00512 1.11 4.8e-4 1.11 4.8e-4 2.24 9.7e-4 11.7 0.00469 23.3-0.00398 35-0.0183 11.5-0.0138 23-0.0129 34.5 0.00238 6.14 0.00776 12.3 0.00933 18.4-0.00691 5.6-0.0147 11.2-0.0105 16.8 0.00785 2 0.00341 4 3e-4 6-0.0106 25.7-0.131 54.7 2.54 73.9 21.4 0.691 0.684 1.38 1.37 2.09 2.07 1.18 0.947 2.37 1.89 3.56 2.81 5.03 4.28 8.66 9.82 12.4 15.2 0.61 0.843 1.22 1.69 1.85 2.55 3.86 5.64 6.68 11.6 9.34 17.8 0.482 1.13 0.482 1.13 0.973 2.29 0.998 2.43 1.93 4.88 2.84 7.34 0.367 0.972 0.734 1.94 1.11 2.95 2.76 7.98 3.49 15.3 3.35 23.7-0.0292 2.02-0.0205 4.04-0.00757 6.06-0.0489 7.64-0.774 14.1-3.46 21.3-0.388 1.19-0.776 2.39-1.18 3.62-4 11.5-8.79 21.3-16 31.1-0.785 1.06-0.785 1.06-1.59 2.15-0.752 0.985-0.752 0.985-1.52 1.99-0.449 0.589-0.898 1.18-1.36 1.78-1.35 1.39-1.35 1.39-4.35 2.39-0.33 0.99-0.66 1.98-1 3-3.46 3.24-7.26 6.09-11 9-1.35 1.08-1.35 1.08-2.72 2.19-20.5 15.9-47.3 15-72 14.9-2.09 0.00165-4.17 0.00374-6.26 0.00622-5.73 0.00554-11.5 0.0049-17.2 0.00322-6.23-7.33e-4 -12.5 0.0043-18.7 0.00858-10.9 0.00669-21.8 0.00968-32.8 0.0101-11.7 5.03e-4 -23.4 0.00316-35.1 0.00841-1.11 4.95e-4 -1.11 4.95e-4 -2.24 1e-3 -3.02 0.00135-6.03 0.00271-9.05 0.00409-35.7 0.0163-71.4 0.0227-107 0.0274-17.8 0.00238-35.5 0.00609-53.3 0.01-57 0.0127-114 0.0234-171 0.0268-2.72 1.62e-4 -5.45 3.28e-4 -8.17 4.94e-4 -5.46 3.34e-4 -10.9 6.64e-4 -16.4 9.95e-4 -6.39 3.87e-4 -12.8 7.77e-4 -19.2 0.00117-1.83 1.12e-4 -3.66 2.24e-4 -5.49 3.34e-4 -58.8 0.00355-118 0.0186-176 0.0419-42.2 0.0167-84.5 0.0322-127 0.0367-0.869 9.35e-5 -1.74 1.87e-4 -2.63 2.83e-4 -19.1 0.00202-38.1 0.00318-57.2 0.00353-6.82 1.36e-4 -13.6 3.45e-4 -20.5 5.93e-4 -1.7 6.16e-5 -3.4 1.2e-4 -5.09 1.75e-4 -27 9.2e-4 -54.1 0.0109-81.1 0.0255-27.2 0.0146-54.5 0.0197-81.7 0.0116-3.77-0.00112-7.53-0.00213-11.3-0.00307-0.738-1.9e-4 -1.48-3.8e-4 -2.24-5.76e-4 -11.7-0.00273-23.4 0.0046-35 0.0161-11.5 0.0111-23 0.0113-34.5 6.3e-4 -6.14-0.00541-12.3-0.00606-18.4 0.00651-5.59 0.0113-11.2 0.00881-16.8-0.00467-2.01-0.00243-4.02 1.36e-4 -6.02 0.0084-14.4 0.0553-27.8-1.08-41.4-6.07-0.704-0.256-1.41-0.513-2.13-0.777-13.3-5.04-23.3-12.6-33.3-22.5-0.879-0.866-1.76-1.73-2.66-2.62-16.6-16.9-26.7-44.4-26.6-67.8 0.378-6.01 1.72-11.7 3.22-17.5 0.217-0.839 0.433-1.68 0.656-2.54 1.51-5.37 3.43-10.6 5.34-15.8 0.249-0.691 0.498-1.38 0.755-2.09 1.36-3.63 2.81-6.53 5.24-9.53 0.679-1.27 1.33-2.57 1.94-3.88 2.9-5.92 6.29-10.6 11.1-15.1 0.568-0.624 1.14-1.25 1.72-1.89 9.91-10.6 22.4-19.6 36.3-24.1 1.22-0.437 1.22-0.437 2.46-0.883 13.7-4.58 27.9-4.41 42.2-4.37z" fill="#000100"/>
</svg>
