<?xml version="1.0" encoding="UTF-8"?>
<svg version="1.1" viewBox="0 0 1600 1112" width="1280" height="1280" xmlns="http://www.w3.org/2000/svg">
<path transform="translate(0)" d="m0 0h1600v1112h-1600v-1112z" fill="#FDFDFD"/>
<path transform="translate(891,62)" d="m0 0c1.2 0.211 2.41 0.423 3.64 0.641 35.4 6.23 70.6 15.9 103 30.5 2.66 1.17 5.37 2.24 8.07 3.33 7.46 3.11 14.6 6.81 21.8 10.5 1.36 0.696 1.36 0.696 2.75 1.41 11.4 5.81 22.5 11.7 33.2 18.6 1.14 0.725 2.29 1.45 3.43 2.17 19.8 12.5 39.3 26 56.6 41.8 1.31 1.15 2.62 2.3 3.94 3.44 7.23 6.32 14.3 12.7 21.1 19.6 2.69 2.69 5.38 5.38 8.09 8.05 5.86 5.8 11.7 11.6 16.9 17.9 0.458 0.555 0.917 1.11 1.39 1.68 16.6 20.1 32.1 40.9 45.6 63.3 0.396 0.655 0.792 1.31 1.2 1.98 41 68 67.7 148 68.8 228 0.00989 0.66 0.0198 1.32 0.03 2 1.21 82.7-14 162-95.8 306-1.32 1.67-2.63 3.36-3.94 5.04-7.95 10.2-16.3 20.1-24.8 29.9-1.35 1.55-2.63 3.15-3.91 4.76-2.02 2.32-3.91 4.16-6.23 6.13-4.27 3.69-8.2 7.65-12.1 11.7-5.28 5.34-10.6 10.3-16.5 15-3.18 2.51-6.26 5.14-9.34 7.77-20.3 17.2-42.3 32.3-65.4 45.4-0.802 0.456-1.6 0.912-2.43 1.38-22 12.4-44.8 24-68.6 32.6-1.03 0.375-2.06 0.751-3.12 1.14-52.6 18.9-108 29.1-164 29-3.22 0.00217-6.43 0.0204-9.65 0.0393-18.8 0.0516-37.5-1.07-56.2-3.97-1.65-0.254-1.65-0.254-3.34-0.513-44.7-7.04-88.2-18.3-130-36.7-0.761-0.336-1.52-0.671-2.31-1.02-24.6-10.9-48.6-24.7-70.7-40-1.28-0.872-2.57-1.74-3.85-2.61-12.3-8.38-24.2-17.2-35.5-26.9-1.72-1.47-3.44-2.94-5.17-4.4-11.4-9.67-22.3-19.8-32.9-30.3l-2.27-2.26c-4.66-4.67-9.06-9.49-13.4-14.5-0.95-1.08-1.9-2.17-2.85-3.25-7.22-8.28-14-16.9-20.5-25.6-1.55-2.05-3.12-4.09-4.7-6.13-6.87-8.9-12.9-18.1-18.6-27.8-1.22-2.07-2.46-4.12-3.72-6.16-54.7-90.1-78.1-199-54.6-359 7.19-29.3 17.2-57.5 30-84.8 0.486-1.05 0.972-2.1 1.47-3.18 9.52-20.5 19.9-40.1 32.5-58.8 0.513-0.767 1.03-1.53 1.56-2.32 14-20.9 29-41.1 46.4-59.4 2.22-2.34 4.35-4.74 6.46-7.18 3.68-4.23 7.58-8.21 11.6-12.2 0.665-0.668 1.33-1.34 2.01-2.03 3.94-3.93 7.99-7.67 12.2-11.3 2.55-2.22 5.01-4.54 7.47-6.86 6.48-6 13.4-11.4 20.4-16.8 1.41-1.09 1.41-1.09 2.85-2.2 15.1-11.5 30.7-22.3 47.1-31.8 0.918-0.536 1.84-1.07 2.78-1.62 16-9.3 32.4-17.6 49.2-25.4 0.968-0.453 1.94-0.906 2.93-1.37 5.44-2.52 10.9-4.77 16.6-6.69 1.48-0.51 2.95-1.02 4.43-1.53 0.701-0.241 1.4-0.482 2.12-0.73 2.56-0.886 5.1-1.81 7.64-2.74 0.855-0.311 1.71-0.621 2.59-0.941 1.99-0.73 3.99-1.47 5.98-2.21 7.12-2.62 14.2-4.83 21.6-6.7 2.42-0.614 4.81-1.28 7.21-2 8.66-2.57 17.3-4.49 26.2-6.09 1.39-0.257 2.79-0.513 4.18-0.77 55.8-10.2 115-12.6 171-2.23z" fill="#000100"/>
<path transform="translate(589 260)" d="m0 0c0.949 0.784 1.9 1.57 2.88 2.38v2h2v2c0.536 0.206 1.07 0.413 1.62 0.625 3.29 1.91 5.97 4.42 8.38 7.38v2h2v2c0.619 0.248 1.24 0.495 1.88 0.75 2.48 1.46 3.08 2.63 4.12 5.25h2v2c0.557 0.227 1.11 0.454 1.69 0.688 4 2.27 6.85 4.93 8.31 9.31h2v2c0.593 0.268 1.19 0.536 1.8 0.811 2.23 1.2 3.68 2.42 5.46 4.21 0.624 0.622 1.25 1.24 1.89 1.89 0.677 0.685 1.35 1.37 2.05 2.07 0.726 0.726 1.45 1.45 2.2 2.2 2.44 2.44 4.87 4.89 7.3 7.34 1.74 1.75 3.49 3.5 5.23 5.25 3.76 3.77 7.52 7.54 11.3 11.3 5.43 5.46 10.9 10.9 16.3 16.4 8.84 8.86 17.7 17.7 26.5 26.6 0.793 0.796 0.793 0.796 1.6 1.61 5.9 5.92 11.8 11.8 17.7 17.8 2.14 2.15 4.27 4.29 6.41 6.44 0.527 0.529 1.05 1.06 1.6 1.6 8.79 8.83 17.6 17.7 26.4 26.5 5.43 5.44 10.9 10.9 16.3 16.3 4.15 4.18 8.31 8.35 12.5 12.5 1.71 1.71 3.41 3.42 5.11 5.14 2.32 2.34 4.65 4.67 6.98 7 1.01 1.02 1.01 1.02 2.04 2.07 3.56 3.53 6.71 6.08 11.4 8.04 0.227-0.557 0.454-1.11 0.688-1.69 1.68-2.96 3.88-4.93 6.31-7.31 0.751-0.751 1.5-1.5 2.28-2.28 58.7-58.7 58.7-58.7 61.1-61.1 2.06-2.07 4.12-4.14 6.18-6.22 1.29-1.3 2.59-2.6 3.88-3.91 0.643-0.651 1.29-1.3 1.95-1.97 2.87-2.88 5.72-5.68 8.87-8.25 2.34-1.94 4.24-3.82 6.18-6.15 3.34-3.91 6.89-7.53 10.6-11.1 3.16-3.14 6.3-6.31 9.43-9.47 1.67-1.68 3.34-3.35 5-5.03 0.833-0.842 1.67-1.68 2.53-2.55 6.91-6.93 6.91-6.93 10.4-9.79 2.36-1.95 4.25-3.87 6.19-6.22 2.6-3.06 5.29-5.44 8.44-7.94 1.56-1.72 3.04-3.49 4.53-5.27 2.69-3.17 5.54-6.02 8.85-8.55 2.96-2.46 5.3-5.18 7.8-8.1 2.79-3.18 5.81-6.12 8.83-9.09 3.36-3.35 6.69-6.72 10-10.1 2.66-2.72 5.33-5.42 8.01-8.12 1.4-1.42 2.79-2.84 4.18-4.26 23.6-24.1 23.6-24.1 40.7-25 11.1 0.494 20.7 5.49 28.3 13.3 8.19 10.3 9.84 21.5 8.74 34.2-2.46 12.3-13.5 21.8-22 30.3-1.29 1.29-1.29 1.29-2.61 2.61-2.36 2.36-4.71 4.72-7.08 7.07-2.56 2.55-5.11 5.11-7.66 7.67-4.99 5-9.98 9.99-15 15-4.06 4.05-8.11 8.11-12.2 12.2-0.867 0.868-0.867 0.868-1.75 1.75-1.17 1.18-2.35 2.35-3.52 3.53-11 11-22 22-33 33-9.44 9.43-18.9 18.9-28.3 28.3-11 11-21.9 21.9-32.9 32.9-1.17 1.17-2.34 2.34-3.5 3.5-0.862 0.862-0.862 0.862-1.74 1.74-4.06 4.05-8.11 8.11-12.2 12.2-4.93 4.94-9.86 9.87-14.8 14.8-2.52 2.51-5.04 5.03-7.55 7.55-2.72 2.73-5.45 5.45-8.17 8.16-0.801 0.806-1.6 1.61-2.43 2.44-0.726 0.721-1.45 1.44-2.2 2.19-0.629 0.629-1.26 1.26-1.91 1.91-1.58 1.33-1.58 1.33-3.58 1.33-0.289 0.598-0.578 1.2-0.875 1.81-1.12 2.19-1.12 2.19-3.12 5.19 0.826 0.754 1.65 1.51 2.5 2.29 11.4 10.4 22.3 21.4 33.1 32.3 2.61 2.62 5.23 5.24 7.85 7.87 6.61 6.62 13.2 13.2 19.8 19.9 7.18 7.2 14.4 14.4 21.6 21.6 3.11 3.11 6.21 6.23 9.31 9.34 1.46 1.46 2.92 2.93 4.38 4.39 1.78 1.78 3.56 3.57 5.33 5.35 0.78 0.78 1.56 1.56 2.36 2.37 0.679 0.681 1.36 1.36 2.06 2.07 1.62 1.65 1.62 1.65 3.69 2.57v2h2c1.35 1.65 2.69 3.32 4 5 0.66 0.33 1.32 0.66 2 1v2h2v2h2v2h2v2h2v2h2v2h2v2h2v2h2v2h2v2h2v2h2v2h2v2h2v2h2v2h2v2h2v2h2v2h2v2c0.821 0.334 0.821 0.334 1.66 0.675 3.06 1.73 5.35 4.05 7.81 6.52 0.534 0.529 1.07 1.06 1.62 1.6 1.76 1.75 3.52 3.51 5.27 5.26 1.23 1.23 2.46 2.45 3.69 3.68 2.58 2.57 5.16 5.15 7.74 7.73 3.28 3.28 6.57 6.55 9.86 9.82 2.55 2.53 5.09 5.07 7.63 7.62 1.21 1.21 2.42 2.41 3.63 3.62 12 11.9 23.4 23.2 23.6 40.9-0.153 11.6-2.88 18.8-11 27.3-8.37 7.61-17.6 10.9-28.8 10.6-19.2-2.15-32.6-18.9-45.5-31.8-1.76-1.76-3.51-3.51-5.27-5.27-3.76-3.76-7.52-7.53-11.3-11.3-5.43-5.46-10.9-10.9-16.3-16.3-8.84-8.85-17.7-17.7-26.5-26.6-8.56-8.58-17.1-17.2-25.7-25.7-0.528-0.529-1.06-1.06-1.6-1.6-2.65-2.66-5.3-5.31-7.96-7.97-18.3-18.3-36.5-36.6-54.7-54.9-0.768-0.77-1.54-1.54-2.33-2.33-1.41-1.42-2.83-2.83-4.24-4.25-1.22-1.22-2.43-2.44-3.65-3.66-1.04-1.04-2.07-2.08-3.11-3.12-2.38-2.39-4.8-4.65-7.38-6.81-2.63-2.28-4.96-4.57-7.19-7.25-5.68-6.73-12.5-12.5-18.9-18.4-3.9 1.3-5.98 2.69-8.56 5.88-0.889 1.06-0.889 1.06-1.8 2.15-0.541 0.652-1.08 1.3-1.64 1.98-2.31 2.5-2.31 2.5-4 4h-2c-0.262 0.587-0.525 1.17-0.795 1.78-1.27 2.34-2.61 3.87-4.48 5.75-0.68 0.685-1.36 1.37-2.06 2.08-0.749 0.745-1.5 1.49-2.27 2.26-0.794 0.797-1.59 1.59-2.41 2.42-2.67 2.68-5.35 5.35-8.03 8.03-1.91 1.92-3.83 3.83-5.74 5.75-4.66 4.67-9.34 9.34-14 14-3.8 3.8-7.6 7.59-11.4 11.4-0.541 0.541-1.08 1.08-1.64 1.64-1.1 1.1-2.2 2.2-3.29 3.3-10.3 10.3-20.6 20.6-30.9 30.9-8.83 8.83-17.7 17.7-26.5 26.5-10.3 10.3-20.5 20.5-30.8 30.8-1.1 1.1-2.19 2.19-3.29 3.29-0.54 0.539-1.08 1.08-1.64 1.63-3.79 3.79-7.57 7.57-11.4 11.4-4.62 4.63-9.25 9.25-13.9 13.9-2.36 2.35-4.72 4.71-7.07 7.07-29.3 29.4-29.3 29.4-46.4 29.7-11.4-0.116-20.8-4.74-29.1-12.6-2.02-2.19-3.56-4.4-5-7-0.392-0.705-0.784-1.41-1.19-2.14-3.84-8.06-4.21-17.1-2.12-25.7 3.77-10.2 10.7-17.9 18.3-25.4 0.892-0.89 1.78-1.78 2.7-2.7 2.46-2.45 4.92-4.89 7.39-7.33 2.67-2.64 5.32-5.29 7.98-7.94 4.6-4.58 9.21-9.16 13.8-13.7 6.67-6.61 13.3-13.2 20-19.9 10.8-10.8 21.6-21.5 32.4-32.3 0.646-0.643 1.29-1.29 1.96-1.95 9.18-9.13 18.4-18.3 27.6-27.4 0.648-0.644 1.3-1.29 1.96-1.95 0.647-0.643 1.29-1.29 1.96-1.95 10.8-10.7 21.5-21.4 32.3-32.2 6.64-6.62 13.3-13.2 19.9-19.8 4.55-4.51 9.1-9.04 13.6-13.6 2.62-2.62 5.24-5.23 7.88-7.83 2.85-2.81 5.68-5.65 8.51-8.49 0.843-0.824 1.69-1.65 2.56-2.5 0.75-0.76 1.5-1.52 2.27-2.3 0.656-0.652 1.31-1.3 1.99-1.98 1.51-1.97 1.51-1.97 1.14-4.55-0.91-2.55-1.72-3.8-3.62-5.69-0.588-0.596-1.18-1.19-1.78-1.8-0.651-0.64-1.3-1.28-1.97-1.94-0.687-0.691-1.37-1.38-2.08-2.09-2.31-2.32-4.64-4.62-6.96-6.92-1.66-1.66-3.31-3.31-4.97-4.97-4.51-4.51-9.02-9-13.5-13.5-4.25-4.22-8.48-8.46-12.7-12.7-8.4-8.39-16.8-16.8-25.2-25.1-8.16-8.12-16.3-16.3-24.5-24.4-0.753-0.751-0.753-0.751-1.52-1.52-2.52-2.51-5.04-5.02-7.55-7.54-17.4-17.3-34.7-34.6-52.1-52-0.734-0.731-1.47-1.46-2.22-2.21-1.35-1.34-2.7-2.69-4.05-4.03-0.598-0.596-1.2-1.19-1.81-1.8-0.556-0.554-1.11-1.11-1.69-1.68-1.46-1.46-2.91-2.92-4.36-4.38-2.74-2.72-5.66-5.16-8.63-7.63-0.519-0.512-1.04-1.02-1.57-1.55v-2c-0.594-0.27-1.19-0.539-1.8-0.817-2.2-1.18-3.64-2.37-5.4-4.11-0.601-0.591-1.2-1.18-1.82-1.79-0.639-0.64-1.28-1.28-1.94-1.94-1-0.996-1-0.996-2.02-2.01-1.41-1.41-2.82-2.82-4.23-4.23-2.13-2.14-4.28-4.26-6.43-6.39-1.38-1.37-2.75-2.75-4.12-4.12-0.635-0.625-1.27-1.25-1.92-1.9-7.88-7.96-15.3-18.2-15.7-29.8 1.14-11.8 5.2-21.8 14-30.1 14.8-11.3 31.9-12.7 47.5-2.16z" fill="#FDFDFD"/>
</svg>
